<svg width="65" height="65" viewBox="0 0 65 65" fill="none" xmlns="http://www.w3.org/2000/svg">
<path d="M32.4 0C25.9919 0 19.7277 1.90023 14.3995 5.46038C9.07139 9.02054 4.9186 14.0807 2.46632 20.0011C0.0140383 25.9214 -0.62759 32.4359 0.622572 38.7209C1.87273 45.0059 4.95853 50.779 9.48976 55.3103C14.021 59.8415 19.7941 62.9273 26.0791 64.1774C32.3641 65.4276 38.8786 64.786 44.799 62.3337C50.7193 59.8814 55.7795 55.7286 59.3396 50.4005C62.8998 45.0723 64.8 38.8081 64.8 32.4C64.8 23.807 61.3865 15.5659 55.3103 9.48974C49.2341 3.41356 40.993 0 32.4 0ZM32.4 58.7C27.1743 58.7 22.0662 57.1491 17.7226 54.2438C13.379 51.3384 9.99535 47.2094 8.00017 42.3796C6.00499 37.5498 5.48806 32.2365 6.51484 27.1127C7.54162 21.9889 10.0659 17.2851 13.768 13.597C17.4702 9.9089 22.1835 7.40246 27.3112 6.39513C32.4389 5.38781 37.7501 5.9249 42.5723 7.9384C47.3945 9.95189 51.5107 13.3512 54.3995 17.7058C57.2883 22.0604 58.8198 27.1744 58.8 32.4C58.8 39.4017 56.0186 46.1167 51.0676 51.0676C46.1167 56.0186 39.4017 58.8 32.4 58.8V58.7Z" fill="#F6F6F6"/>
<path d="M35.7 41.8H29.5V47.75H35.7V41.8Z" fill="#F6F6F6"/>
<path d="M39.8 19.3C37.5317 17.7684 34.8351 16.9979 32.1 17.1C29.9865 17.0344 27.9002 17.5908 26.1 18.7C23.5 20.3666 22.1333 23.1333 22 27H28C28.009 25.8267 28.3562 24.6809 29 23.7C29.3722 23.154 29.8839 22.7176 30.4818 22.4362C31.0797 22.1549 31.742 22.0388 32.4 22.1C34 22.1 35.1 22.5333 35.7 23.4C36.3059 24.2438 36.6217 25.2614 36.6 26.3C36.6073 27.1974 36.3269 28.0735 35.8 28.8C35.4671 29.2618 35.0619 29.667 34.6 30L33.1 31.2C31.9233 31.9843 30.9609 33.0498 30.3 34.3C29.8271 35.8558 29.5911 37.4739 29.6 39.1H35.2C35.1928 38.2902 35.2937 37.4831 35.5 36.7C35.7418 35.7929 36.2675 34.987 37 34.4L38.5 33.3C39.6204 32.5047 40.6294 31.563 41.5 30.5C42.4026 29.1772 42.8582 27.6003 42.8 26C42.9065 24.7207 42.6872 23.4353 42.1626 22.2637C41.638 21.0922 40.8252 20.0725 39.8 19.3Z" fill="#F6F6F6"/>
</svg>
